<svg width="421" height="361" viewBox="0 0 421 361" fill="none" xmlns="http://www.w3.org/2000/svg">
<path d="M369.848 293.698C363.394 302.783 352.816 308.346 339.133 310.58C325.446 312.813 308.692 311.707 289.968 307.485C252.522 299.042 207.295 278.16 163.182 246.824C119.07 215.489 84.4613 179.659 64.1595 147.081C54.008 130.791 47.4472 115.335 45.0501 101.676C42.6535 88.0201 44.4239 76.2002 50.8775 67.115C57.3312 58.0299 67.9092 52.4665 81.5931 50.2332C95.2794 47.9995 112.033 49.1057 130.758 53.3276C168.204 61.7709 213.43 82.6528 257.543 113.989C301.656 145.324 336.264 181.154 356.566 213.732C366.718 230.022 373.278 245.478 375.676 259.137C378.072 272.793 376.302 284.613 369.848 293.698Z" stroke="#C3C3C3"/>
<path d="M43.0473 281.777C37.2727 272.246 36.3682 260.328 39.7534 246.883C43.1393 233.435 50.8087 218.499 62.1201 202.992C84.7414 171.979 121.868 138.766 168.147 110.728C214.425 82.6891 261.053 65.1577 299.015 59.4651C317.997 56.6186 334.787 56.736 348.274 59.961C361.759 63.1853 371.904 69.5046 377.678 79.0357C383.453 88.5669 384.358 100.484 380.972 113.93C377.586 127.377 369.917 142.314 358.606 157.821C335.984 188.834 298.857 222.047 252.579 250.085C206.3 278.124 159.673 295.655 121.711 301.348C102.729 304.194 85.9385 304.077 72.4513 300.852C58.9665 297.628 48.8219 291.308 43.0473 281.777Z" stroke="#949494"/>
</svg>
