<svg width="553" height="1033" viewBox="0 0 553 1033" fill="none" xmlns="http://www.w3.org/2000/svg">
<circle cx="10" cy="19" r="10" fill="black"/>
<circle cx="32.5" cy="11.5" r="11.5" fill="black"/>
<circle cx="61" cy="16" r="13" fill="black"/>
<circle cx="160.5" cy="127.5" r="19.5" fill="black"/>
<circle cx="91.5" cy="29.5" r="14.5" fill="black"/>
<circle cx="147.5" cy="85.5" r="17.5" fill="black"/>
<circle cx="121" cy="52" r="16" fill="black"/>
<circle cx="241.217" cy="381.569" r="10" transform="rotate(-157.364 241.217 381.569)" fill="black"/>
<circle cx="217.564" cy="379.831" r="11.5" transform="rotate(-157.364 217.564 379.831)" fill="black"/>
<circle cx="192.991" cy="364.709" r="13" transform="rotate(-157.364 192.991 364.709)" fill="black"/>
<circle cx="144.07" cy="223.503" r="19.5" transform="rotate(-157.364 144.07 223.503)" fill="black"/>
<circle cx="170.037" cy="340.51" r="14.5" transform="rotate(-157.364 170.037 340.51)" fill="black"/>
<circle cx="139.903" cy="267.271" r="17.5" transform="rotate(-157.364 139.903 267.271)" fill="black"/>
<circle cx="151.469" cy="308.39" r="16" transform="rotate(-157.364 151.469 308.39)" fill="black"/>
<circle cx="161.5" cy="176.5" r="21.5" fill="black"/>
<circle cx="266.17" cy="380.286" r="10" transform="rotate(20.2332 266.17 380.286)" fill="black"/>
<circle cx="289.876" cy="381.03" r="11.5" transform="rotate(20.2332 289.876 381.03)" fill="black"/>
<circle cx="315.061" cy="395.109" r="13" transform="rotate(20.2332 315.061 395.109)" fill="black"/>
<circle cx="369.86" cy="534.14" r="19.5" transform="rotate(20.2332 369.86 534.14)" fill="black"/>
<circle cx="339.01" cy="418.324" r="14.5" transform="rotate(20.2332 339.01 418.324)" fill="black"/>
<circle cx="372.187" cy="490.236" r="17.5" transform="rotate(20.2332 372.187 490.236)" fill="black"/>
<circle cx="358.908" cy="449.638" r="16" transform="rotate(20.2332 358.908 449.638)" fill="black"/>
<circle cx="357.728" cy="800.446" r="10" transform="rotate(-137.131 357.728 800.446)" fill="black"/>
<circle cx="336.135" cy="790.636" r="11.5" transform="rotate(-137.131 336.135 790.636)" fill="black"/>
<circle cx="318.309" cy="767.948" r="13" transform="rotate(-137.131 318.309 767.948)" fill="black"/>
<circle cx="321.241" cy="618.536" r="19.5" transform="rotate(-137.131 321.241 618.536)" fill="black"/>
<circle cx="305.14" cy="737.304" r="14.5" transform="rotate(-137.131 305.14 737.304)" fill="black"/>
<circle cx="302.195" cy="658.163" r="17.5" transform="rotate(-137.131 302.195 658.163)" fill="black"/>
<circle cx="298.826" cy="700.744" r="16" transform="rotate(-137.131 298.826 700.744)" fill="black"/>
<circle cx="353.852" cy="580.462" r="21.5" transform="rotate(20.2332 353.852 580.462)" fill="black"/>
<circle cx="386.171" cy="804.286" r="10" transform="rotate(20.2332 386.171 804.286)" fill="black"/>
<circle cx="409.876" cy="805.03" r="11.5" transform="rotate(20.2332 409.876 805.03)" fill="black"/>
<circle cx="435.061" cy="819.109" r="13" transform="rotate(20.2332 435.061 819.109)" fill="black"/>
<circle cx="489.86" cy="958.14" r="19.5" transform="rotate(20.2332 489.86 958.14)" fill="black"/>
<circle cx="459.01" cy="842.324" r="14.5" transform="rotate(20.2332 459.01 842.324)" fill="black"/>
<circle cx="492.187" cy="914.236" r="17.5" transform="rotate(20.2332 492.187 914.236)" fill="black"/>
<circle cx="478.908" cy="873.638" r="16" transform="rotate(20.2332 478.908 873.638)" fill="black"/>
<circle cx="473.852" cy="1004.46" r="21.5" transform="rotate(20.2332 473.852 1004.46)" fill="black"/>
</svg>
