<svg width="1440" height="1024" viewBox="0 0 1440 1024" fill="none" xmlns="http://www.w3.org/2000/svg">
<rect width="1440" height="1024" fill="#F0F0F0"/>
<rect x="1067" y="53" width="373" height="455" fill="#ECECEC"/>
<rect y="253" width="943" height="572" fill="#F5F5F5"/>
<rect x="642.676" y="315.621" width="51" height="51" transform="rotate(-28.002 642.676 315.621)" stroke="#FCA311"/>
<rect x="754.554" y="840.357" width="51" height="51" transform="rotate(-6.53352 754.554 840.357)" stroke="#FCA311"/>
<rect x="54.5536" y="40.3566" width="51" height="51" transform="rotate(-6.53352 54.5536 40.3566)" stroke="#FCA311"/>
<rect x="901.393" y="53.6428" width="51" height="51" transform="rotate(20.3677 901.393 53.6428)" stroke="#FCA311"/>
<rect x="1309.85" y="531.655" width="51" height="51" transform="rotate(29.6069 1309.85 531.655)" stroke="#FCA311"/>
<rect x="182.957" y="526.129" width="51" height="51" transform="rotate(-12.6531 182.957 526.129)" stroke="#FCA311"/>
<rect x="1074.6" y="414.769" width="51" height="51" transform="rotate(-12.6531 1074.6 414.769)" stroke="#FCA311"/>
</svg>
